PathFileType	4	(X/Y/Z)	Patient4_TMGait_0pt2_02_left_03.trc.trc
DataRate	CameraRate	NumFrames	NumMarkers	Units	OrigDataRate	OrigDataStartFrame	OrigNumFrames
44.303797468354	44.303797468354	4	33	mm	44.303797468354	71	       141
Frame#	Time	R.Midfoot.Superior			Sacral			L.Shoulder			Chest			R.Shoulder			Neck			R.ASIS			L.ASIS			R.Thigh.Superior			R.Thigh.Lateral			R.Thigh.Inferior			R.Patella			L.Thigh.Superior			L.Thigh.Lateral			L.Thigh.Inferior			L.Patella			L.Shank.Superior			L.Shank.Lateral			L.Shank.Inferior			R.Shank.Superior			R.Shank.Lateral			R.Shank.Inferior			R.Heel			R.Midfoot.Lateral			R.Toe			L.Heel			L.Midfoot.Lateral			L.Midfoot.Superior			L.Toe			L.Elbow			L.Wrist			R.Elbow			R.Wrist			
		X1	Y1	Z1	X2	Y2	Z2	X3	Y3	Z3	X4	Y4	Z4	X5	Y5	Z5	X6	Y6	Z6	X7	Y7	Z7	X8	Y8	Z8	X9	Y9	Z9	X10	Y10	Z10	X11	Y11	Z11	X12	Y12	Z12	X13	Y13	Z13	X14	Y14	Z14	X15	Y15	Z15	X16	Y16	Z16	X17	Y17	Z17	X18	Y18	Z18	X19	Y19	Z19	X20	Y20	Z20	X21	Y21	Z21	X22	Y22	Z22	X23	Y23	Z23	X24	Y24	Z24	X25	Y25	Z25	X26	Y26	Z26	X27	Y27	Z27	X28	Y28	Z28	X29	Y29	Z29	X30	Y30	Z30	X31	Y31	Z31	X32	Y32	Z32	X33	Y33	Z33	

71	8.100000000000	1029.273596495442	110.532133210373	592.567561167926	719.382875210785	1018.144187927113	355.758935660849	976.111911851968	1434.918257839042	230.656433909364	1018.032226629464	1361.624692051546	414.252317400620	890.928987618490	1444.386731268828	553.245809143657	909.534304228572	1497.220637882625	375.824906957298	909.104445385952	949.202383188564	530.916676123260	963.194421773924	956.682696435001	261.558712271428	968.546569797980	759.348900854788	517.365781933813	895.171257715832	648.935928425949	582.176669506299	983.665363671082	596.702632670037	514.148076603291	1001.206034375119	514.600043498928	534.377606754259	975.505338686536	735.478201010799	297.048976501986	882.798251155651	624.839560511807	224.562695660470	947.371592718262	543.357967741782	301.195127083831	938.125214230928	474.801455732834	310.261273226768	903.205549240401	405.864077057486	300.025745688800	805.601561507432	299.798232684819	247.551303847156	838.433359000218	186.432421588703	323.557513559846	977.590210992283	426.619274661896	547.883968696952	911.502609913645	323.293144944717	617.549845760920	971.922203732434	227.043412790143	572.523028684595	857.807368795725	48.512407647739	555.870201104681	945.461940798347	38.497554655580	625.055909133656	1151.212411163464	64.174014270072	610.387553941230	696.260584271160	38.653264338821	366.693348428565	768.045668208904	34.993738372693	283.923394284397	853.643835177543	94.917389588868	309.536257557003	980.390107721748	40.185520549121	276.265820156047	1141.351361954580	1161.741954693591	80.586509616731	1395.837604575909	1115.916751133565	123.323068215278	705.967794318672	1140.464069074671	616.474584270122	682.700919062652	878.955155989454	599.809328935360	
72	8.122571428571	1039.104793229860	108.663945202116	591.805981711504	720.345281039837	1017.439206311416	358.956200489914	976.777115546973	1434.230009785105	235.096744188859	1017.634448045236	1361.480526463439	419.160360357493	889.639731523059	1444.689123539226	556.974089573083	909.059737122029	1496.665955345089	379.404307394070	908.462344205860	947.949687995293	535.489578654773	964.863669364280	956.385472180414	266.632142047127	966.564021851050	756.901642704715	522.527767339088	890.691172040216	646.354035059274	584.829063678881	980.009041324249	594.783776176581	517.540553584887	996.377730789737	514.256625226973	536.132122770954	974.850861320114	734.333375606427	300.955495054087	881.045334951068	625.133862635643	227.039495925091	944.039143617522	542.488059697900	303.377182743981	933.812115982955	474.250623316348	312.066298450074	899.082789607566	405.713460701981	301.368347596462	801.307151971959	300.041515453995	248.349986756821	833.947358233122	186.368245453641	324.027859908766	976.246796564076	425.712238339988	549.430247875688	913.412803558706	319.436806965661	618.358698274221	977.520402798422	225.310628553826	572.872500248091	868.606820612618	44.644208286033	554.864938564742	956.103806592689	35.892060579828	624.257642594908	1161.652053606820	63.840609956730	609.909608193444	691.661417651156	38.540191916072	366.676354352714	763.429280068560	34.917797440320	283.900279049217	849.019974108241	94.907860297956	309.589724909692	975.791354442022	40.246124634661	276.315126506642	1147.344769262275	1165.280763562319	86.153278305824	1402.981389850238	1130.739688186045	131.513016394796	705.600354462751	1140.367820825727	619.355763946416	685.424131063731	878.380136542805	602.780541454329	
73	8.145142857143	1044.999027251239	106.918553359939	590.329089829032	721.650009516160	1016.452235956370	362.709875987487	977.222150300756	1433.521178041782	239.990348105719	1017.339557387665	1361.260264288360	424.431066736327	888.530141329393	1444.673930779017	561.283666328677	908.580097972550	1495.963298283115	383.538374236510	908.460254993559	946.455967697310	540.306845237971	966.836231567512	956.085297365802	271.892884942098	965.826226576534	754.593008065604	527.420554100679	887.883982394295	643.651468822745	587.135852357550	978.193352285234	592.993667349944	520.584580890670	993.179862075550	513.386411412033	537.609533237881	974.677164176955	733.101361543815	304.863273850458	879.623198682250	625.377333376654	229.718868799553	941.104087519387	541.571271294518	305.650373603454	929.911363270732	473.635393783574	313.982463632339	895.287664735221	405.506538733975	302.843827266399	797.224631275359	300.347567675995	249.232515850317	829.580305226081	186.294884320081	324.518620551918	975.521812670013	424.346857425050	550.641697836038	914.563143052567	316.169415931417	618.492819487584	981.023936241009	223.635657604755	572.555244845586	875.245229419736	42.488952288405	552.882192263368	962.129125974673	34.611494608311	622.860108955028	1167.499333566252	62.628671858467	609.457304861970	687.068930309616	38.463956732285	366.645786251243	758.826990082375	34.855088328985	283.880936851768	844.418827074142	94.913208925372	309.628172069379	971.199654544088	40.298489723217	276.358597508503	1152.365700487965	1168.473999067320	91.796575165035	1408.601956041452	1144.265706994677	139.311720904440	706.379457692135	1139.253116398672	623.136622884192	689.608847135022	876.825880277486	606.936275358286	
74	8.167714285714	1047.341314048666	105.255869173669	588.348933317715	723.278822494530	1015.290420710177	366.983719727434	977.515708769962	1432.852038169931	245.284064597511	1017.183835801093	1361.037060049115	430.027490175042	887.608733847582	1444.430121948640	566.112518900262	908.130056610445	1495.191670415713	388.174249006378	909.092501273843	944.859575328221	545.370036287682	969.092104463318	955.827418189132	277.328579183742	966.314278388045	752.539644051958	532.001567613044	886.804511404455	641.024315227898	589.240679825275	978.153218826791	591.412247138686	523.356335145732	991.674971546648	512.102673958992	538.936033866517	974.901790353188	731.811089036222	308.788266072522	878.444384668332	625.606688891340	232.603015628974	938.468929338435	540.647012750622	308.033112176290	926.324777086835	473.002171011085	316.023372105958	891.735192665470	405.290612178571	304.457627823870	793.287057450840	300.746135208018	250.210568563478	825.304469063478	186.237576028855	325.027949853854	975.508364918286	422.612232432802	551.634970053693	915.180483981181	313.433734287526	618.225499422901	982.696818125107	221.915093781528	571.765039244099	878.074247920501	41.527607088978	550.352212970556	964.090314675100	34.286016153177	621.162644577285	1169.387906388123	60.786265479962	609.033904867626	682.485963413246	38.433957255870	366.602248877228	754.243395857636	34.813335923873	283.867357216093	839.846269308106	94.936625956701	309.649549310619	966.617179918835	40.339220671475	276.394370697230	1156.468395313083	1171.251049021326	97.506787542926	1412.889542325808	1156.354220066660	146.696073863702	708.107761320452	1137.371272868445	627.801131468027	694.951889760910	874.576057169076	612.338966408241	
